<svg version="1.1" xmlns="http://www.w3.org/2000/svg" xmlns:xlink="http://www.w3.org/1999/xlink" x="0px" y="0px" viewBox="0 0 707.7 243.25" style="enable-background:new 0 0 707.7 243.25;" xml:space="preserve">
<style type="text/css">
	.st0{display:none;}
	.st1{display:inline;}
	.st2{fill:#FFFFFF;}
	
		.st3{clip-path:url(#SVGID_00000098202164814054255720000017567941545806910126_);fill:url(#SVGID_00000023974240481761379850000000190423767554522511_);}
	.st4{fill:#F9CBCC;}
</style>
<g id="BACKGROUND" class="st0">
	<rect class="st1" width="707.7" height="243.25"/>
</g>
<g id="TEXT">
	<path class="st2" d="M443.9,105.76l-8.75-23.89h-5.96v29.02h4.14V88.23l8.19,22.66h4.77l8.19-22.66v22.66h4.13V81.87h-5.96   L443.9,105.76z M482.87,102.54c0,2.98-2.19,4.37-4.57,4.37h-3.98c-2.39,0-4.57-1.39-4.57-4.37V81.87h-4.17v20.67   c0,4.97,3.78,8.35,8.95,8.35h3.58c5.17,0,8.95-3.38,8.95-8.35V81.87h-4.17V102.54z M511.29,89.42c0-4.77-4.17-8.19-9.34-8.19   c-5.01,0-8.95,3.22-8.95,7.79c0,4.97,3.38,7.55,7.16,8.71c0.99,0.32,2.23,0.64,3.18,0.83c1.99,0.4,4.57,1.39,4.57,4.37   c0,2.78-2.19,4.57-5.57,4.57c-2.98,0-6.04-2.03-5.96-5.96l-4.17,1.39c0.08,4.45,4.73,8.59,10.14,8.59c6.16,0,9.74-4.02,9.74-8.59   c0-4.97-3.18-7.43-7.16-8.39c-1.03-0.24-2.11-0.48-3.18-0.76c-3.18-0.83-4.57-2.38-4.57-4.57c0-2.39,1.83-4.17,4.77-4.17   c2.78,0,4.97,1.99,4.97,4.37H511.29z M517.65,110.89h18.29v-3.98h-14.11v-8.75h14.11v-3.97h-14.11v-8.35h14.11v-3.98h-18.29V110.89   z M558.2,102.54c0,2.98-2.19,4.37-4.57,4.37h-3.98c-2.39,0-4.57-1.39-4.57-4.37V81.87h-4.17v20.67c0,4.97,3.78,8.35,8.94,8.35h3.58   c5.17,0,8.95-3.38,8.95-8.35V81.87h-4.17V102.54z M584.05,105.76l-8.75-23.89h-5.96v29.02h4.14V88.23l8.19,22.66h4.77l8.19-22.66   v22.66h4.14V81.87h-5.96L584.05,105.76z"/>
	<path class="st2" d="M115.25,142.61h-2.39c-0.18,0-0.3,0.09-0.3,0.24v2.59c0,0.14,0.12,0.24,0.3,0.24h2.39   c3.76,0,4.65,1.79,4.65,4.48v8.95h-10.79c-0.18,0-0.3,0.09-0.3,0.23v2.59c0,0.14,0.12,0.24,0.3,0.24h14.67v-12.34   C123.78,144.07,120.38,142.61,115.25,142.61 M145.53,159.1h-4.65v-9.66c0-4.48-1.79-6.93-6.56-6.93c-4,0-6.5,1.79-6.5,7.21v5.42   c0,5.61,3.04,7.02,7.34,7.02H137v1.13c0,3.96-2.27,4.95-4.53,4.95h-2.62c-0.18,0-0.3,0.1-0.3,0.24v2.59c0,0.14,0.12,0.24,0.3,0.24   h2.62c6.5,0,8.41-3.2,8.41-7.96v-1.18h4.65V159.1z M137,159.1h-1.73c-2.8,0-3.58-1.13-3.58-2.69v-7.3c0-1.84,0.66-3.53,2.74-3.53   c0.95,0,2.57,1.04,2.57,3.53V159.1z M144.34,162.16h11.87v-3.06h-11.87V162.16z M155.01,162.16h11.87v-3.06h-11.87V162.16z    M165.68,162.16h11.87v-3.06h-11.87V162.16z M176.36,162.16h2.74c2.21,0,3.94-0.71,4.77-1.98c0.66,1.13,1.85,1.98,3.76,1.98h0.24   c2.27,0,3.94-0.75,4.77-2.03c0.66,1.13,2.09,1.93,4.53,1.98l5.07,0.05v-16.54c0-0.14-0.12-0.24-0.3-0.24h-3.28   c-0.18,0-0.3,0.1-0.3,0.24v13.48h-1.79c-1.37,0-2.45-0.52-2.45-2.21v-10.74c0-0.14-0.12-0.24-0.3-0.24h-3.28   c-0.18,0-0.3,0.1-0.3,0.24v10.27c0,2.07-0.83,2.69-2.33,2.69h-0.36c-1.43,0-2.44-0.61-2.44-2.31v-10.18c0-0.14-0.12-0.24-0.3-0.24   h-3.28c-0.18,0-0.3,0.09-0.3,0.24v9.89c0,1.98-0.84,2.59-2.33,2.59h-2.56V162.16z M208.6,132.15h7.22c0.12,0,0.24-0.09,0.24-0.19   v-1.13c0-0.1-0.12-0.19-0.24-0.19h-3.04c-0.95,0-1.37-0.24-1.37-0.9V128c0-0.85,0.42-1.18,1.01-1.18c0.89,0,1.13,0.61,1.13,1.18   v0.57c0,0.14,0.06,0.19,0.24,0.19h1.49c0.18,0,0.3-0.1,0.3-0.19v-0.71c0-1.6-0.66-2.59-3.04-2.59c-1.97,0-3.22,0.61-3.22,2.64v0.71   c0,1.08,0.06,1.69,0.66,2.02h-1.31c-0.12,0-0.24,0.09-0.24,0.19v1.18C208.43,132.1,208.49,132.15,208.6,132.15 M206.22,162.16h9.36   c5.6,0,7.04-2.4,7.04-5.94v-23.51c0-0.14-0.12-0.24-0.3-0.24h-3.28c-0.18,0-0.3,0.09-0.3,0.24v23.46c0,2.31-1.49,2.92-3.82,2.92   h-8.71c-0.18,0-0.3,0.09-0.3,0.23v2.59C205.92,162.06,206.04,162.16,206.22,162.16 M210.33,134.74v21.86c0,0.14,0.12,0.24,0.3,0.24   h3.28c0.18,0,0.3-0.1,0.3-0.24v-21.86c0-0.14-0.12-0.24-0.3-0.24h-3.28C210.45,134.5,210.33,134.6,210.33,134.74 M227.02,132.71   v29.21c0,0.14,0.12,0.24,0.3,0.24h3.28c0.18,0,0.3-0.09,0.3-0.24v-29.21c0-0.14-0.12-0.24-0.3-0.24h-3.28   C227.14,132.48,227.02,132.57,227.02,132.71"/>
	<path class="st2" d="M595.37,155.73c0,2.73-1.37,3.39-3.4,3.39c-2.5,0-3.1-1.37-3.1-3.39v-8.62c0-0.14,0.12-0.24,0.3-0.24h1.97   c3.4,0,4.23,1.65,4.23,4.1V155.73z M590.78,143.81h-5.85c-0.18,0-0.3,0.09-0.3,0.24v11.07c0,3.2-1.07,4-2.92,4h-1.55v3.06h1.55   c2.15,0,3.58-0.75,4.41-2.03c1.19,1.46,3.16,2.03,5.67,2.03c5.67,0,7.1-2.83,7.1-7.07v-4.76   C598.89,145.13,595.61,143.81,590.78,143.81 M565.08,159.12c-1.37,0-2.44-0.52-2.44-2.21v-10.79c0-0.14-0.12-0.24-0.3-0.24h-3.28   c-0.18,0-0.3,0.09-0.3,0.24v10.41c0,1.98-0.83,2.59-2.33,2.59h-1.49v3.06h2.15c2.03,0,3.52-0.8,4.29-2.12   c0.54,1.13,1.55,2.12,3.4,2.12h2.56v-3.06H565.08z M562.09,141.36h2.86c0.18,0,0.3-0.09,0.3-0.24v-2.26c0-0.14-0.12-0.24-0.3-0.24   h-2.86c-0.18,0-0.3,0.09-0.3,0.24v2.26C561.8,141.27,561.92,141.36,562.09,141.36 M557.38,141.36h2.86c0.18,0,0.3-0.09,0.3-0.24   v-2.26c0-0.14-0.12-0.24-0.3-0.24h-2.86c-0.18,0-0.3,0.09-0.3,0.24v2.26C557.09,141.27,557.2,141.36,557.38,141.36 M535.6,159.12   c-1.73,0-1.97-1.37-1.97-3.77v-6.41c0-4.81-2.21-6.46-6.5-6.46c-5.01,0-6.68,2.17-6.68,6.17v3.96c0,0.14,0.12,0.24,0.3,0.24h3.28   c0.18,0,0.3-0.09,0.3-0.24v-4.1c0-2.26,1.01-2.97,2.8-2.97c2.03,0,2.62,1.08,2.62,2.97v8.01c0,0.94,0.18,1.84,0.6,2.59H515.5v3.06   h24.27v-3.06H535.6z M504.82,162.18h11.87v-3.06h-11.87V162.18z M539.21,162.18h16.65v-3.06h-16.65V162.18z M565.26,162.18h16.66   v-3.06h-16.66V162.18z M472.45,162.18h33.56v-3.06h-33.56V162.18z M461.46,162.18h11.87v-3.06h-11.87V162.18z M453.35,159.12h-2.74   c-2.86,0-3.76-1.55-3.76-3.91v-5.18c0-2.78,0.71-4.47,3.34-4.47c1.97,0,3.16,0.99,3.16,4.47V159.12z M457.22,159.12v-9.7   c0-4.48-1.79-6.93-7.04-6.93c-4.71,0-7.22,1.79-7.22,7.16v5.27c0,1.74,0.48,3.16,1.55,4.19h-9.48c-1.13,0-1.97-0.42-1.97-2.03   v-9.05c0-0.14-0.12-0.24-0.3-0.24h-3.28c-0.18,0-0.3,0.1-0.3,0.24v10.08c0,2.4,1.85,4.05,5.37,4.05h22.36h0.06h5.66v-3.06H457.22z    M448.75,138.53h2.86c0.18,0,0.3-0.09,0.3-0.24v-2.26c0-0.14-0.12-0.24-0.3-0.24h-2.86c-0.18,0-0.3,0.09-0.3,0.24v2.26   C448.46,138.44,448.58,138.53,448.75,138.53"/>
	<path class="st2" d="M109.21,110.89h11.93c5.17,0,9.14-3.18,9.14-8.15c0-3.18-1.55-5.49-3.94-6.72c2.15-1.31,3.54-3.54,3.54-6.2   c0-4.77-3.98-7.95-9.14-7.95h-11.53V110.89z M113.39,106.92v-8.75h7.95c2.39,0,4.77,1.19,4.77,4.37c0,2.78-2.38,4.37-4.77,4.37   H113.39z M113.39,94.19v-8.35h7.55c2.39,0,4.77,1.19,4.77,4.17c0,2.98-2.39,4.17-4.77,4.17H113.39z M135.65,110.89h17.49v-3.98   h-13.32V81.87h-4.17V110.89z M159.11,110.89l3.22-9.54h9.42l3.26,9.54h4.17l-9.94-29.02h-4.37l-9.94,29.02H159.11z M170.44,97.37   h-6.76l3.38-9.9L170.44,97.37z M181.04,96.42c0,8.51,6.36,15.27,15.11,15.27c4.37,0,8.75-1.99,11.53-5.57l-2.78-2.78   c-1.99,2.78-4.77,4.41-8.55,4.41c-6.96,0-11.09-4.97-11.09-11.37s4.13-11.37,10.89-11.37c3.78,0,6.56,1.63,8.55,4.41l2.78-2.78   c-2.78-3.58-7.16-5.57-11.53-5.57C187.4,81.07,181.04,87.87,181.04,96.42 M226.42,81.87L215.29,93.8V81.87h-4.17v29.02h4.17V98.57   l10.77,12.33h5.33l-12.92-14.75l12.92-14.27H226.42z"/>
	<path class="st2" d="M302.04,86.6c-2.78-3.38-6.8-5.53-11.57-5.53c-8.75,0-15.11,6.76-15.11,15.31c0,8.55,6.36,15.31,14.91,15.31   c7.75,0,14.31-6.16,14.71-13.32l-3.78-3.78h-17.89v3.98h17.57c-0.4,5.37-4.81,9.14-10.61,9.14c-6.56,0-10.7-4.77-10.7-11.29   c0-6.6,4.14-11.37,10.7-11.37c3.9,0,7,1.67,8.9,4.41L302.04,86.6z M307.96,96.38c0,8.47,6.84,15.31,15.31,15.31   c8.47,0,15.31-6.84,15.31-15.31c0-8.47-6.84-15.31-15.31-15.31C314.8,81.07,307.96,87.91,307.96,96.38 M312.14,96.42   c0-6.6,4.57-11.37,11.13-11.37s11.09,4.77,11.09,11.37c0,6.52-4.53,11.29-11.09,11.29S312.14,102.94,312.14,96.42 M342.81,110.89   h17.49v-3.98h-13.32V81.87h-4.17V110.89z M384.8,90.62c0-4.97-3.78-8.75-8.94-8.75h-11.73v29.02h11.73c5.17,0,8.94-3.78,8.94-8.75   V90.62z M380.98,102.34c0,2.98-2.19,4.57-4.57,4.57h-7.75V85.84h7.75c2.38,0,4.57,1.59,4.57,4.57V102.34z"/>
	<path class="st2" d="M380.92,132.76v29.21c0,0.14,0.12,0.24,0.3,0.24h3.28c0.18,0,0.3-0.1,0.3-0.24v-29.21   c0-0.14-0.12-0.24-0.3-0.24h-3.28C381.04,132.52,380.92,132.62,380.92,132.76 M367.15,162.21h8.35c0.18,0,0.3-0.1,0.3-0.24v-29.21   c0-0.14-0.12-0.24-0.3-0.24h-3.28c-0.18,0-0.3,0.1-0.3,0.24v26.38h-4.77V162.21z M363.39,159.14v-9.28c0-5.75-3.4-7.21-8.53-7.21   h-2.39c-0.18,0-0.3,0.1-0.3,0.24v2.59c0,0.14,0.12,0.24,0.3,0.24h2.39c3.76,0,4.65,1.79,4.65,4.48v8.95h-10.79   c-0.18,0-0.3,0.09-0.3,0.24v2.59c0,0.14,0.12,0.24,0.3,0.24h19.62v-3.06H363.39z M354.81,138.6h2.86c0.18,0,0.3-0.09,0.3-0.24   v-2.26c0-0.14-0.12-0.24-0.3-0.24h-2.86c-0.18,0-0.3,0.09-0.3,0.24v2.26C354.51,138.51,354.63,138.6,354.81,138.6 M332.38,159.14   h-1.85c-1.73,0-2.74-1.32-2.74-3.68v-2.78c0-2.17,0.66-3.91,2.33-3.91c1.61,0,2.27,1.74,2.27,3.91V159.14z M331.73,139.68h-2.09   c-0.18,0-0.3,0.09-0.3,0.24v2.59c0,0.14,0.12,0.24,0.3,0.24h2.09c6.32,0,7.81,3.11,7.81,9.28v7.11h-3.28v-6.55   c0-5.18-2.86-6.88-6.14-6.88c-3.34,0-6.2,1.7-6.2,6.88v2.36c0,1.7,0.54,3.2,1.49,4.19h-5.37v3.06h23.08c0.18,0,0.3-0.1,0.3-0.24   v-10.46C343.42,141.99,339.66,139.68,331.73,139.68 M289.28,165.64h-2.86c-0.18,0-0.3,0.1-0.3,0.24v2.26c0,0.14,0.12,0.24,0.3,0.24   h2.86c0.18,0,0.3-0.09,0.3-0.24v-2.26C289.58,165.74,289.46,165.64,289.28,165.64 M301.63,159.14c-1.97,0-2.74-1.13-2.74-3.06   v-9.19c0-0.14-0.12-0.24-0.3-0.24h-3.28c-0.18,0-0.3,0.09-0.3,0.24v10.46c0,1.37-0.6,1.79-2.45,1.79h-11.63   c-1.07,0-1.61-0.52-1.61-1.55v-8.86c0-0.14-0.12-0.24-0.3-0.24h-3.28c-0.18,0-0.3,0.09-0.3,0.24v9.56c0,2.36,2.03,3.91,5.13,3.91   h12.52c1.91,0,3.46-0.28,4.47-1.23c1.01,0.75,2.27,1.23,3.76,1.23h3.28v-3.06H301.63z M304.15,162.21h16.73v-3.06h-16.73V162.21z"/>
</g>
<g id="VERTICAL_LINES">
	<g>
		<defs>
			<path id="SVGID_1_" d="M81.05,162.22h11.93v-81.1H81.05V162.22z M247.13,162.22h11.93v-81.1h-11.93V162.22z M401.03,162.22h11.93     v-81.1h-11.93V162.22z M615.12,162.22h11.93v-81.1h-11.93V162.22z"/>
		</defs>
		<clipPath id="SVGID_00000129207590732715697940000006273006175279573133_">
			<use xlink:href="#SVGID_1_" style="overflow:visible;"/>
		</clipPath>
		
			<linearGradient id="SVGID_00000096760052858281284490000014243592439096651434_" gradientUnits="userSpaceOnUse" x1="1.1466" y1="244.224" x2="2.1466" y2="244.224" gradientTransform="matrix(546 0 0 -546 -545 133468)">
			<stop offset="0" style="stop-color:#B77414"/>
			<stop offset="3.241760e-03" style="stop-color:#B77414"/>
			<stop offset="0.0381" style="stop-color:#B77414"/>
			<stop offset="0.9075" style="stop-color:#EDAD04"/>
			<stop offset="1" style="stop-color:#EDAD04"/>
		</linearGradient>
		
			<rect x="81.05" y="81.12" style="clip-path:url(#SVGID_00000129207590732715697940000006273006175279573133_);fill:url(#SVGID_00000096760052858281284490000014243592439096651434_);" width="546" height="81.1"/>
	</g>
</g>
<g id="CLEARSPACE" class="st0">
	<g class="st1">
		<rect x="586.45" y="162.25" class="st4" width="40.35" height="80.9"/>
		<path d="M626.7,162.35v80.7h-40.15v-80.7H626.7 M626.9,162.15h-40.55v81.1h40.55V162.15L626.9,162.15z"/>
	</g>
	<g class="st1">
		<rect x="627.15" y="81.09" class="st4" width="80.5" height="40.35"/>
		<path d="M707.55,81.19v40.15h-80.3V81.19H707.55 M707.75,80.99h-80.7v40.55h80.7V80.99L707.75,80.99z"/>
	</g>
</g>
</svg>